<svg xmlns="http://www.w3.org/2000/svg" xmlns:xlink="http://www.w3.org/1999/xlink" width="1500" height="1500" viewBox="0 0 1500 1500">
  <defs>
    <clipPath id="clip-undraw_prototyping_process_re_7a6p">
      <rect width="1500" height="1500"/>
    </clipPath>
  </defs>
  <g id="undraw_prototyping_process_re_7a6p" clip-path="url(#clip-undraw_prototyping_process_re_7a6p)">
    <rect width="1500" height="1500" fill="#fff"/>
    <path id="Path_8556" data-name="Path 8556" d="M892.236,715.929h-313.9a32.843,32.843,0,0,1-32.8-32.808V273.392a32.843,32.843,0,0,1,32.8-32.808h313.9a32.845,32.845,0,0,1,32.8,32.808V683.121a32.843,32.843,0,0,1-32.8,32.808Z" fill="#f2f2f2"/>
    <path id="Path_8557" data-name="Path 8557" d="M892.236,717.513h-313.9a34.431,34.431,0,0,1-34.389-34.393V273.392A34.431,34.431,0,0,1,578.332,239h313.9a34.431,34.431,0,0,1,34.389,34.392V683.12a34.431,34.431,0,0,1-34.389,34.393Zm-313.9-475.344a31.255,31.255,0,0,0-31.22,31.223V683.12a31.257,31.257,0,0,0,31.22,31.224h313.9a31.255,31.255,0,0,0,31.22-31.224V273.392a31.255,31.255,0,0,0-31.22-31.223Z" fill="#f39728"/>
    <path id="Path_8558" data-name="Path 8558" d="M1402.2,715.929H1088.29a32.845,32.845,0,0,1-32.8-32.808V273.392a32.845,32.845,0,0,1,32.8-32.808H1402.2a32.845,32.845,0,0,1,32.8,32.808V683.121a32.845,32.845,0,0,1-32.8,32.808Z" fill="#f2f2f2"/>
    <path id="Path_8559" data-name="Path 8559" d="M729.73,766.637A56.742,56.742,0,1,0,672.994,709.9,56.739,56.739,0,0,0,729.73,766.637Z" fill="#f39728"/>
    <path id="Path_8560" data-name="Path 8560" d="M721.99,739.427a6.306,6.306,0,0,1-5.048-2.525l-15.479-20.641a6.311,6.311,0,1,1,10.1-7.573l10.126,13.5L747.7,683.174a6.311,6.311,0,0,1,10.5,7l-30.956,46.44a6.317,6.317,0,0,1-5.077,2.809Z" fill="#fff"/>
    <path id="Path_8561" data-name="Path 8561" d="M680.5,935.049H78.467A13.484,13.484,0,0,1,65,921.581V376.519a13.482,13.482,0,0,1,13.467-13.468H680.5a13.481,13.481,0,0,1,13.466,13.468V921.581A13.483,13.483,0,0,1,680.5,935.049Z" fill="#edd9c9"/>
    <path id="Path_8562" data-name="Path 8562" d="M667.83,922.373H91.141a13.484,13.484,0,0,1-13.467-13.468V389.194a13.482,13.482,0,0,1,13.467-13.468H667.83A13.481,13.481,0,0,1,681.3,389.194V908.905a13.483,13.483,0,0,1-13.466,13.468Z" fill="#fff"/>
    <path id="Path_8563" data-name="Path 8563" d="M120.44,432.188q101.8-1.771,203.625-.509t203.548,5.584q57.092,2.421,114.135,5.8c3.055.18,3.045-4.574,0-4.754q-101.638-6.015-203.426-9-101.772-2.979-203.6-2.912-57.143.039-114.278,1.036c-3.055.053-3.064,4.807,0,4.754Z" fill="#e8cfbe"/>
    <path id="Path_8564" data-name="Path 8564" d="M593.413,402.382l29.676-2.209c3.032-.225,3.057-4.981,0-4.753l-29.676,2.209c-3.032.226-3.056,4.981,0,4.753Z" fill="#e8cfbe"/>
    <path id="Path_8565" data-name="Path 8565" d="M593.413,430.9l29.676-2.209c3.032-.226,3.057-4.981,0-4.753l-29.676,2.208c-3.032.226-3.056,4.981,0,4.754Z" fill="#e8cfbe"/>
    <path id="Path_8566" data-name="Path 8566" d="M591.181,417.878l42.193,3.834c3.045.277,3.027-4.479,0-4.754l-42.193-3.833c-3.045-.277-3.026,4.478,0,4.753Z" fill="#e8cfbe"/>
    <path id="Path_8567" data-name="Path 8567" d="M138,395.99a10.516,10.516,0,0,0-9.717,6.346,9.467,9.467,0,0,0,2.178,11.244,11.252,11.252,0,0,0,10.661,2.166A9.514,9.514,0,0,0,147.5,406.8a10.629,10.629,0,0,0-6.62-10.25,2.386,2.386,0,0,0-2.923,1.66,2.445,2.445,0,0,0,1.659,2.924c.415.16-.378-.2.009.007.159.086.321.165.477.257.133.079.26.165.389.249.443.29-.217-.213.067.048.246.225.489.446.713.695.084.094.416.356.158.173-.2-.14-.076-.107,0,.005.058.086.119.169.175.254a8.511,8.511,0,0,1,.5.872c.035.07.067.141.1.21.067.13.163.164.007,0s-.054-.145,0,0c.035.1.074.195.108.294a9.167,9.167,0,0,1,.28.978c.035.153.063.307.093.461.106.545-.016-.34.01.066.021.338.046.673.04,1.013,0,.156-.009.311-.02.466,0,.077-.014.155-.019.232-.025.373-.026-.136.027-.171a4.353,4.353,0,0,0-.215.977c-.043.148-.093.293-.141.439-.165.51.156-.278-.021.07a8.592,8.592,0,0,1-.485.871c-.077.118-.369.384-.131.2.259-.2-.136.145-.22.234q-.162.171-.337.33a2.567,2.567,0,0,1-.236.205c-.015-.007.4-.275.175-.134-.282.181-.549.373-.847.53-.035.018-.415.2-.413.2-.017-.064.489-.178.142-.066-.073.024-.145.052-.217.076a7.685,7.685,0,0,1-.966.258c-.075.015-.154.022-.228.041-.245.064.235-.037.25-.029a2.09,2.09,0,0,0-.541.048,9,9,0,0,1-1.013,0c-.078,0-.155-.012-.233-.017-.182-.01-.314-.141-.073,0,.185.109.17.029.005,0-.077-.014-.154-.026-.231-.041a9.085,9.085,0,0,1-.989-.242c-.174-.053-.346-.115-.518-.175a1.454,1.454,0,0,1-.219-.084c0-.02.445.212.209.086-.3-.16-.6-.3-.893-.469-.155-.094-.3-.2-.454-.3a1.465,1.465,0,0,1-.188-.135c.005-.02.368.317.178.135-.242-.23-.5-.436-.728-.681-.053-.056-.1-.114-.154-.17l-.051-.058c-.128-.158-.131-.157-.007,0,.126.037.12.176,0,0-.043-.064-.088-.126-.13-.19a5,5,0,0,1-.492-.877c.012-.009.206.571.058.133-.028-.083-.06-.164-.087-.247-.055-.165-.1-.331-.145-.5s-.062-.339-.1-.5c-.07-.279.041.221.028.209-.04-.039-.023-.282-.026-.34-.019-.373.024-.735.03-1.106.005-.287-.023.224-.029.209a.774.774,0,0,1,.045-.252c.043-.2.083-.391.135-.585.061-.221.13-.44.209-.656.029-.08.065-.16.092-.241.1-.3-.2.36-.034.091.226-.37.4-.771.635-1.137.057-.086.4-.569.219-.326s.188-.217.258-.3c.292-.325.634-.591.936-.9.179-.184-.124.091-.142.1.093-.066.185-.136.279-.2.165-.114.334-.221.507-.323.195-.114.416-.2.6-.32.223-.143-.171.063-.178.067a1.749,1.749,0,0,1,.318-.121c.184-.066.985-.411,1.153-.3-.008-.005-.608.048-.123.017.115-.007.229-.018.344-.023.232-.01.463,0,.695.008a2.394,2.394,0,0,0,2.377-2.377A2.429,2.429,0,0,0,138,395.99Z" fill="#e8cfbe"/>
    <path id="Path_8568" data-name="Path 8568" d="M171.274,395.99a10.513,10.513,0,0,0-9.717,6.346,9.467,9.467,0,0,0,2.178,11.244,11.251,11.251,0,0,0,10.66,2.166,9.513,9.513,0,0,0,6.375-8.941,10.628,10.628,0,0,0-6.621-10.25,2.387,2.387,0,0,0-2.923,1.66,2.447,2.447,0,0,0,1.66,2.924c.414.16-.378-.2.008.007.159.086.321.165.477.257.133.079.26.165.389.249.444.29-.216-.213.067.048a9.942,9.942,0,0,1,.713.695c.085.094.416.356.159.173-.2-.14-.076-.107,0,.005.057.086.118.169.175.254a8.5,8.5,0,0,1,.5.872c.035.07.067.141.1.21.066.13.163.164.006,0s-.054-.145,0,0c.035.1.073.195.107.294a8.941,8.941,0,0,1,.28.978c.035.153.063.307.093.461.106.545-.015-.34.01.066.022.338.047.673.041,1.013,0,.156-.01.311-.02.466-.006.077-.014.155-.02.232-.024.373-.025-.136.027-.171a4.465,4.465,0,0,0-.215.977c-.042.148-.093.293-.14.439-.165.51.155-.278-.021.07a8.415,8.415,0,0,1-.486.871c-.077.118-.369.384-.13.2.259-.2-.136.145-.22.234q-.163.171-.337.33a2.862,2.862,0,0,1-.236.205c-.015-.007.4-.275.175-.134-.283.181-.55.373-.847.53-.035.018-.416.2-.414.2-.016-.064.489-.178.142-.066-.073.024-.144.052-.217.076a7.67,7.67,0,0,1-.965.258c-.075.015-.154.022-.228.041-.246.064.235-.037.249-.029a2.1,2.1,0,0,0-.541.048,8.985,8.985,0,0,1-1.012,0c-.078,0-.156-.012-.234-.017-.181-.01-.314-.141-.073,0,.186.109.171.029.006,0-.077-.014-.155-.026-.232-.041a9.124,9.124,0,0,1-.988-.242c-.175-.053-.346-.115-.519-.175a1.4,1.4,0,0,1-.218-.084c0-.02.444.212.209.086-.3-.16-.6-.3-.894-.469-.154-.094-.3-.2-.453-.3a1.474,1.474,0,0,1-.189-.135c0-.02.369.317.178.135-.241-.23-.5-.436-.728-.681-.052-.056-.1-.114-.154-.17l-.05-.058q-.194-.237-.007,0c.126.037.12.176,0,0-.042-.064-.087-.126-.13-.19a5,5,0,0,1-.491-.877c.011-.009.206.571.057.133-.028-.083-.059-.164-.087-.247-.055-.165-.1-.331-.144-.5s-.062-.339-.1-.5c-.07-.279.041.221.028.209-.039-.039-.022-.282-.025-.34-.019-.373.023-.735.03-1.106,0-.287-.024.224-.03.209a.83.83,0,0,1,.045-.252c.043-.2.083-.391.136-.585.06-.221.13-.44.208-.656.03-.08.065-.16.093-.241.1-.3-.2.36-.034.091.226-.37.394-.771.634-1.137.057-.086.4-.569.22-.326s.187-.217.258-.3c.291-.325.634-.591.936-.9.178-.184-.125.091-.143.1.094-.066.185-.136.28-.2.165-.114.334-.221.507-.323.195-.114.415-.2.6-.32.224-.143-.17.063-.177.067a1.7,1.7,0,0,1,.318-.121c.184-.066.984-.411,1.152-.3-.008-.005-.608.048-.122.017.114-.007.228-.018.343-.023.232-.01.464,0,.7.008a2.392,2.392,0,0,0,2.376-2.377,2.429,2.429,0,0,0-2.376-2.376Z" fill="#e8cfbe"/>
    <path id="Path_8569" data-name="Path 8569" d="M204.544,395.99a10.513,10.513,0,0,0-9.716,6.346,9.465,9.465,0,0,0,2.177,11.244,11.252,11.252,0,0,0,10.661,2.166,9.514,9.514,0,0,0,6.374-8.941,10.629,10.629,0,0,0-6.62-10.25,2.386,2.386,0,0,0-2.923,1.66,2.445,2.445,0,0,0,1.659,2.924c.415.16-.378-.2.009.007.159.086.321.165.477.257.133.079.26.165.389.249.444.29-.217-.213.067.048.246.225.489.446.713.695.084.094.416.356.158.173-.2-.14-.076-.107,0,.005.058.086.119.169.175.254a8.508,8.508,0,0,1,.505.872c.035.07.067.141.1.21.067.13.163.164.007,0s-.055-.145,0,0c.035.1.073.195.108.294a9.17,9.17,0,0,1,.28.978c.035.153.063.307.093.461.106.545-.016-.34.01.066.021.338.046.673.04,1.013,0,.156-.009.311-.02.466-.005.077-.014.155-.019.232-.025.373-.026-.136.027-.171a4.353,4.353,0,0,0-.215.977c-.043.148-.093.293-.141.439-.165.51.156-.278-.021.07a8.6,8.6,0,0,1-.485.871c-.078.118-.37.384-.131.2.259-.2-.136.145-.22.234q-.162.171-.337.33a2.569,2.569,0,0,1-.236.205c-.015-.007.4-.275.175-.134-.282.181-.549.373-.847.53-.035.018-.415.2-.414.2-.016-.064.49-.178.143-.066-.073.024-.145.052-.217.076a7.685,7.685,0,0,1-.966.258c-.075.015-.154.022-.228.041-.245.064.235-.037.25-.029a2.09,2.09,0,0,0-.541.048,9,9,0,0,1-1.013,0c-.078,0-.155-.012-.233-.017-.182-.01-.314-.141-.073,0,.185.109.17.029.005,0-.077-.014-.154-.026-.231-.041a9.085,9.085,0,0,1-.989-.242c-.175-.053-.346-.115-.518-.175a1.414,1.414,0,0,1-.219-.084c0-.02.445.212.209.086-.3-.16-.6-.3-.893-.469-.155-.094-.3-.2-.454-.3a1.464,1.464,0,0,1-.188-.135c.005-.02.368.317.178.135-.242-.23-.5-.436-.728-.681-.053-.056-.1-.114-.154-.17l-.051-.058q-.193-.237-.007,0c.126.037.12.176,0,0-.043-.064-.088-.126-.13-.19a5,5,0,0,1-.492-.877c.012-.009.206.571.058.133-.028-.083-.06-.164-.087-.247-.055-.165-.1-.331-.145-.5s-.062-.339-.1-.5c-.07-.279.041.221.028.209-.04-.039-.023-.282-.026-.34-.019-.373.024-.735.03-1.106.005-.287-.023.224-.029.209a.773.773,0,0,1,.045-.252c.043-.2.083-.391.135-.585.061-.221.13-.44.209-.656.029-.08.065-.16.092-.241.1-.3-.2.36-.034.091.226-.37.4-.771.635-1.137.057-.086.4-.569.219-.326s.188-.217.258-.3c.292-.325.634-.591.936-.9.179-.184-.124.091-.142.1.093-.066.185-.136.279-.2.165-.114.334-.221.507-.323.2-.114.416-.2.605-.32.223-.143-.171.063-.178.067a1.749,1.749,0,0,1,.318-.121c.184-.066.985-.411,1.153-.3-.008-.005-.608.048-.123.017.115-.007.229-.018.344-.023.232-.01.463,0,.7.008a2.394,2.394,0,0,0,2.377-2.377,2.429,2.429,0,0,0-2.377-2.376Z" fill="#e8cfbe"/>
    <path id="Path_8570" data-name="Path 8570" d="M135.11,520.819l2.12,81.132,2.119,81.133c.268,10.237-1.178,24.2,9.2,30.2,4.332,2.5,9.51,3.05,14.419,3.187,6.516.181,13.054.047,19.572.054l81.2.086c10.668.012,22.386-.3,30.029-8.893,6.38-7.173,8.188-17.117,8.828-26.4.844-12.247.439-24.646.549-36.916l.364-40.775.365-40.774c.11-12.388.7-24.875.153-37.255-.415-9.445-2.011-19.531-8.343-26.954-7.213-8.455-18.618-9.6-29.021-9.93-26.9-.861-53.812-1.588-80.717-2.382-6.19-.182-12.4-.515-18.591-.433a48.1,48.1,0,0,0-16.216,2.485c-8.7,3.257-15.495,11.07-15.192,20.76a14.411,14.411,0,0,0,4.915,10.7c2.322,1.964,5.7-1.382,3.361-3.362-6.341-5.364-3.27-15.416,2.272-20.178,8.031-6.9,20.622-5.779,30.415-5.49l76.218,2.248c5.911.175,11.838.233,17.742.581,5.27.31,10.775,1,15.492,3.533,8.157,4.389,11.341,13.395,12.412,22.1,1.349,10.959.537,22.266.439,33.274l-.347,38.8-.687,76.8c-.083,9.341.061,18.982-3.082,27.914a23.563,23.563,0,0,1-7.144,10.652,25.712,25.712,0,0,1-14.3,4.891c-5.786.467-11.637.241-17.436.235l-19.8-.021-38.024-.041-19.8-.021c-5.786-.006-11.615.2-17.395-.121-4.436-.244-9.385-1.011-12.654-4.311-3.661-3.7-4-9.406-4.168-14.308-1.75-51.051-2.673-102.145-4.006-153.209l-.5-19c-.079-3.053-4.833-3.065-4.753,0Z" fill="#f8eee7"/>
    <path id="Path_8571" data-name="Path 8571" d="M436.129,520.819l2.119,81.132,2.12,81.133c.267,10.237-1.179,24.2,9.2,30.2,4.331,2.5,9.51,3.05,14.419,3.187,6.516.181,13.053.047,19.572.054l81.2.086c10.668.012,22.385-.3,30.029-8.893,6.38-7.173,8.188-17.117,8.827-26.4.845-12.247.439-24.646.549-36.916l.365-40.775.364-40.774c.111-12.388.7-24.875.153-37.255-.414-9.445-2.011-19.531-8.342-26.954-7.214-8.455-18.619-9.6-29.021-9.93-26.9-.861-53.812-1.588-80.717-2.382-6.19-.182-12.4-.515-18.591-.433a48.109,48.109,0,0,0-16.217,2.485c-8.7,3.257-15.494,11.07-15.192,20.76a14.421,14.421,0,0,0,4.915,10.7c2.322,1.964,5.7-1.382,3.361-3.362-6.341-5.364-3.27-15.416,2.273-20.178,8.031-6.9,20.621-5.779,30.414-5.49l76.218,2.248c5.911.175,11.839.233,17.743.581,5.27.31,10.775,1,15.492,3.533,8.157,4.389,11.34,13.395,12.412,22.1,1.348,10.959.537,22.266.438,33.274l-.347,38.8-.686,76.8c-.084,9.341.061,18.982-3.082,27.914a23.565,23.565,0,0,1-7.145,10.652,25.709,25.709,0,0,1-14.3,4.891c-5.785.467-11.637.241-17.435.235l-19.8-.021-38.023-.041-19.8-.021c-5.787-.006-11.616.2-17.395-.121-4.436-.244-9.386-1.011-12.654-4.311-3.661-3.7-4-9.406-4.169-14.308-1.75-51.051-2.672-102.145-4.006-153.209l-.5-19c-.08-3.053-4.833-3.065-4.753,0Z" fill="#f8eee7"/>
    <path id="Path_8572" data-name="Path 8572" d="M217.151,734.173a13.445,13.445,0,0,0-12.744-3.316,15.544,15.544,0,0,0-10.082,8.657c-4.49,9.564-.467,20.712,5.737,28.523,5.766,7.257,15.133,12.04,24.257,8.23a21.6,21.6,0,0,0,13.02-21.589c-1.15-10.62-9.779-19.221-19.912-21.814-2.965-.759-4.23,3.824-1.264,4.583a22.244,22.244,0,0,1,15.58,13.776,16.672,16.672,0,0,1-5.748,18.647c-14.162,10.877-30.362-9.92-28.774-23.527a13.133,13.133,0,0,1,6-9.951,8.907,8.907,0,0,1,10.573,1.142,2.378,2.378,0,0,0,3.361-3.361Z" fill="#ff8e28"/>
    <path id="Path_8573" data-name="Path 8573" d="M507.517,569.205c-5.547-1.908-11.985-3.8-17.724-1.566-5.415,2.11-8.4,7.275-8.983,12.881-.654,6.252,2,12.215,4.821,17.628,3.389,6.511,6.884,12.969,10.328,19.451l11.913,22.42a2.393,2.393,0,0,0,4.428-1.2,45.862,45.862,0,0,1,3.473-22.032c3.047-7.02,8.025-12.949,11.563-19.7,3.258-6.214,5.43-13.344,3.7-20.348-1.4-5.665-5.515-11.178-11.452-12.5a13,13,0,0,0-15.134,7.477c-1.122,2.847,3.473,4.082,4.583,1.264,1.581-4.014,7.115-5.245,10.8-3.709,4.8,2,7.085,7.746,7.079,12.628-.008,6.675-3.427,12.774-6.9,18.257-3.5,5.537-7.187,10.892-9.516,17.064a49.8,49.8,0,0,0-2.96,21.6l4.429-1.2c-7.735-14.558-15.9-28.97-23.2-43.75-2.808-5.684-5.334-13.349-1.029-19.019,4.414-5.813,12.838-3.012,18.5-1.063,2.9,1,4.144-3.593,1.264-4.583Z" fill="#ff8e28"/>
    <path id="Path_8574" data-name="Path 8574" d="M205.013,747.452l7,13.576a2.4,2.4,0,0,0,4.344-.568,52.287,52.287,0,0,1,12.628-25.2c2.059-2.255-1.292-5.625-3.361-3.361a56.931,56.931,0,0,0-13.85,27.3l4.343-.568-7-13.576c-1.4-2.72-5.505-.318-4.1,2.4Z" fill="#ff8e28"/>
    <path id="Path_8575" data-name="Path 8575" d="M284.4,684.781l-55.3,48.847a1.624,1.624,0,0,1-2.273-2.315l51.523-56.261Z" fill="#ff8e28"/>
    <path id="Path_8576" data-name="Path 8576" d="M358.117,1279.25h21.734l10.344-83.84H358.117Z" fill="#e1b483"/>
    <path id="Path_8577" data-name="Path 8577" d="M346.646,1316.91h15.587l2.782-14.72,7.125,14.72h41.34a9.292,9.292,0,0,0,5.28-16.94l-33.012-22.8v-14.88l-34.723,2.07Z" fill="#551f11"/>
    <path id="Path_8578" data-name="Path 8578" d="M544.283,1279.25h21.734l10.344-83.84H544.283Z" fill="#e1b483"/>
    <path id="Path_8579" data-name="Path 8579" d="M532.812,1316.91H548.4l2.782-14.72,7.125,14.72h41.34a9.292,9.292,0,0,0,5.28-16.94l-33.012-22.8v-14.88l-34.723,2.07Z" fill="#551f11"/>
    <path id="Path_8580" data-name="Path 8580" d="M481.466,834.837,371.237,822.588s-48.991,63.7-30.62,118.816v61.376l13.473,239.95,33.681,1.84,9.8-109.02,9.186-43.48L414.492,926.4l39.417,47.467,3.674,18.374,12.248,8.572,22.658,31.14,46.542,191.18,41.015.62s-22.031-198.44-24.481-198.44S491.877,891.8,491.877,891.8v-7.065l-2.45-13.759s6.124-4.9,3.675-7.349-4.9-9.8-4.9-9.8Z" fill="#534711"/>
    <path id="Path_8581" data-name="Path 8581" d="M441.662,663.963l22.046,24.5,30.619,11.024L477.18,799.928l5.687,28.882,8.4,31.751c-32.358,17.9-70.8-6.822-106.106-17.8l-34.743,15.352,1.837-42.26.942-106.474a29.838,29.838,0,0,1,32.127-29.49l23.271-17.149Z" fill="#98a9c1"/>
    <path id="Path_8582" data-name="Path 8582" d="M241.671,708.894a12.486,12.486,0,0,0,15.785,10.84l25.275,36.48,8.593-21.4-25.319-31.361a12.555,12.555,0,0,0-24.334,5.443Z" fill="#e1b483"/>
    <path id="Path_8583" data-name="Path 8583" d="M374.009,680.409s-32.9-1.458-29.215,63.929L330.8,773.061l-28.15-26.274-.127-8.363-23.8-26.611-19.109,21.126,12.72,19.448,2.452,10.862,7.746,4.733,20.212,30.905,9.35,9.2s11.861,11.821,25.276,10.04a34.446,34.446,0,0,0,10.325-3.037c6.382-3.038,12.686-8.485,17.987-17.707A552.59,552.59,0,0,0,395.5,738.415Z" fill="#98a9c1"/>
    <path id="Path_8584" data-name="Path 8584" d="M518.029,606.591a12.489,12.489,0,0,0,10.732,15.86l10.2,43.194,15.82-16.78-12.107-38.446a12.555,12.555,0,0,0-24.64-3.828Z" fill="#e1b483"/>
    <path id="Path_8585" data-name="Path 8585" d="M448.015,693.663S465.41,665.7,517.257,705.7l31.6,4.692L543.1,672.319l-6.826-4.834L527.786,632.8l28.226-3.821,8.851,21.488,7.572,8.163-.476,9.066,14.065,34.146,2.3,12.916s3.045,16.467-6.008,26.528a34.478,34.478,0,0,1-8.341,6.8c-6.114,3.548-14.171,5.669-24.774,4.829a552.432,552.432,0,0,1-65.5-8.732Z" fill="#98a9c1"/>
    <path id="Path_8586" data-name="Path 8586" d="M445.559,653.75a42.428,42.428,0,1,0-57.575-16.878A42.432,42.432,0,0,0,445.559,653.75Z" fill="#e1b483"/>
    <path id="Path_8587" data-name="Path 8587" d="M481.029,601.881c-.126.047-.237.1-.364.142a5.822,5.822,0,0,1-.745.27,20.5,20.5,0,0,1-5.022,1.141,20,20,0,0,1-2.2.11,20.632,20.632,0,0,1-2.82-.19,20.007,20.007,0,0,1-3.074-.633q-.715-.2-1.41-.46a21.613,21.613,0,0,1-13.34-13.9v-.016a9.512,9.512,0,0,1-.269-.95,21.457,21.457,0,0,1-.7-5.467V581.9a21.451,21.451,0,0,1,4.04-12.533c1.584-2.234,3.409-2.6,2.392-5.165-3.242-8.172,10.125-14.812,18-11.2a7.641,7.641,0,0,1,.856-.032c5.307,0,7.256,7.843,10.408,12.264l-.091.029a4.073,4.073,0,0,0,.032,7.706q3.157,1.038,6.381,1.835C500.173,583.2,491.981,607.683,481.029,601.881Z" fill="#551f11"/>
    <path id="Path_8588" data-name="Path 8588" d="M477.069,624.333c-2.361,8.921-6.7,17.619-13.879,23.4-7.193,5.783-40.986,19.441-43.806,7.669,1.885,8.223.729,11.36-2.345,14.292-.523-.713-1.077-1.4-1.648-2.06a26.707,26.707,0,0,0-7.446-6.005,85.906,85.906,0,0,0,1.03,14.83,50.314,50.314,0,0,0-3.612,3.676c-5.418-16.288-17.336-35.811-8.635-50.608,3.454-5.872.589-6.685-2.455-7.368-5.314-1.192-8.191-23.022-9.443-28.33-1.552-6.655-2.154-14.308,1.981-19.759s14.559-5.656,16.651.856l4.4-5.958c5.7-12.47,20.754-9.935,34.364-8.287,13.609,1.632,25.6,11.234,31.7,23.514C480.015,596.478,480.57,611.071,477.069,624.333Z" fill="#551f11"/>
    <path id="Path_8589" data-name="Path 8589" d="M455.752,567.251a38.435,38.435,0,0,0,21.891,36.28c2.763,1.261,5.181-2.835,2.4-4.1a33.815,33.815,0,0,1-19.537-32.176C460.671,564.2,455.918,564.2,455.752,567.251Z" fill="#f39728"/>
    <path id="Path_8590" data-name="Path 8590" d="M269.213,1288.35a4.147,4.147,0,0,1-4-2.53,4.14,4.14,0,0,1,1.007-4.63l.282-1.12c-.037-.09-.074-.18-.112-.27-3.8-9.07-28.052,16.2-29.1,24.72a32.8,32.8,0,0,0,.576,11.28,131.533,131.533,0,0,1-11.961-54.62,126.866,126.866,0,0,1,.787-14.16q.652-5.775,1.81-11.48a133.108,133.108,0,0,1,26.376-56.38c7.508.42,14.087-.72,14.722-15.27.113-2.59,2.033-4.83,2.456-7.38-.717.09-1.445.15-2.162.2l-.682.03-.084.01a4.121,4.121,0,0,1-2.249-.56,4.1,4.1,0,0,1-2-3.97,4.136,4.136,0,0,1,.891-2.14l.929-1.14c.47-.59.952-1.16,1.422-1.75a1.015,1.015,0,0,0,.152-.18c.541-.67,1.081-1.32,1.622-1.99a11.815,11.815,0,0,0-3.877-3.75c-5.417-3.17-12.889-.98-16.8,3.92s-4.664,11.78-3.3,17.9a47.448,47.448,0,0,0,6.556,14.62c-.294.37-.6.74-.893,1.11a134.052,134.052,0,0,0-13.973,22.14c1.11-8.67-12.463-39.98-17.712-46.62-6.3-7.96-19.233-4.49-20.344,5.61-.011.1-.021.2-.032.3.78.44,1.543.9,2.29,1.4a5.6,5.6,0,0,1-2.258,10.19l-.114.02c-10.436,14.9,23.02,53.68,31.394,44.98a136.577,136.577,0,0,0-7.355,34.61,129.662,129.662,0,0,0,.094,20.93l-.035-.25c-1.861-15.16-33.782-37.7-43.1-35.83-5.37,1.09-10.659.84-9.844,6.26.014.08.027.17.04.26a36.742,36.742,0,0,1,4.218,2.03c.78.44,1.543.91,2.29,1.4a5.6,5.6,0,0,1-2.258,10.19l-.114.02-.235.03c-4.751,16.35,30.479,42.73,51.9,34.34h.012a136.677,136.677,0,0,0,9.176,26.79h32.78c.117-.36.223-.74.329-1.11a36.781,36.781,0,0,1-9.071-.54c2.433-2.98,4.865-5.99,7.3-8.97.054-.06.105-.12.152-.18,1.234-1.53,2.479-3.04,3.713-4.57h0a54.55,54.55,0,0,0-1.6-13.9Zm-37.537-73.85.017-.03-.017.05Zm-7.261,65.46-.282-.64q.018-.675,0-1.38c0-.13-.024-.26-.024-.39.106.81.2,1.62.318,2.43Z" fill="#f39728"/>
    <path id="Path_8591" data-name="Path 8591" d="M633.563,1316.83h-462.8V1320h462.8Z" fill="#ccc"/>
    <path id="Path_8592" data-name="Path 8592" d="M1245.15,453.373l-.04.034a20.054,20.054,0,0,0-29.9,26.663l-.04.034,26.73,29.982,29.98-26.731a20.084,20.084,0,1,0-26.73-29.982Z" fill="#f39728"/>
    <ellipse id="Ellipse_1279" data-name="Ellipse 1279" cx="7.29" cy="7.29" rx="7.29" ry="7.29" transform="translate(977.154 1123.558)" fill="#333f4f"/>
    <ellipse id="Ellipse_1280" data-name="Ellipse 1280" cx="7.29" cy="7.29" rx="7.29" ry="7.29" transform="translate(948.093 1086.345)" fill="#333f4f"/>
    <path id="Path_8776" data-name="Path 8776" d="M578.36,492.32v6.149q2.384.093,4.884.093c1.436,0,2.849,0,4.239-.07V492.32Z" transform="translate(459.291 476.091)" fill="#333f4f" opacity="0.1"/>
    <ellipse id="Ellipse_1281" data-name="Ellipse 1281" cx="33.688" cy="9.852" rx="33.688" ry="9.852" transform="translate(1008.846 952.782)" fill="#333f4f"/>
    <path id="Path_8777" data-name="Path 8777" d="M541.64,482.037a4.006,4.006,0,0,0,1.436,2.849,9.032,9.032,0,0,0,1.071.885c5.016,3.587,17.081,6.118,31.172,6.118s26.258-2.554,31.25-6.172a7.592,7.592,0,0,0,.714-.559,4.239,4.239,0,0,0,1.731-3.106c0-5.435-15.078-9.853-33.7-9.853S541.64,476.594,541.64,482.037Z" transform="translate(467.501 480.59)" fill="#333f4f"/>
    <path id="Path_8778" data-name="Path 8778" d="M541.64,482.037a4.006,4.006,0,0,0,1.436,2.849,9.032,9.032,0,0,0,1.071.885c5.016,3.587,17.081,6.118,31.172,6.118s26.258-2.554,31.25-6.172a7.592,7.592,0,0,0,.714-.559,4.239,4.239,0,0,0,1.731-3.106c0-5.435-15.078-9.853-33.7-9.853S541.64,476.594,541.64,482.037Z" transform="translate(467.501 480.59)" fill="#333f4f" opacity="0.1"/>
    <path id="Path_8779" data-name="Path 8779" d="M541.27,482.037a4,4,0,0,0,1.436,2.849c4.294-1.064,7.259-1.957,7.259-1.957s29.689,1.661,56.949,2.228a4.231,4.231,0,0,0,1.731-3.106c0-5.435-15.078-9.852-33.7-9.852S541.27,476.594,541.27,482.037Z" transform="translate(467.584 480.59)" fill="#333f4f" opacity="0.1"/>
    <path id="Path_8781" data-name="Path 8781" d="M541.64,482.037a4.006,4.006,0,0,0,1.436,2.849,9.032,9.032,0,0,0,1.071.885,507.485,507.485,0,0,0,62.423-.054,7.6,7.6,0,0,0,.714-.559,4.239,4.239,0,0,0,1.731-3.106c0-5.435-15.078-9.853-33.7-9.853S541.64,476.594,541.64,482.037Z" transform="translate(467.501 480.59)" fill="#333f4f" opacity="0.1"/>
    <path id="Path_8811" data-name="Path 8811" d="M589.214,521.938s-19.41-4.736-22.384-2.151S589.214,521.938,589.214,521.938Z" transform="translate(461.923 470.122)" opacity="0.1"/>
    <path id="Path_8814" data-name="Path 8814" d="M481.07,810.159s43.385-2.329,53.96-8.54,25.544-6.211,25.621-6.211L733.4,757.721l71.817-17.081,12.811-1.685-42.314-48.416-1.289-.559L712.049,663s-27.95,1.553-33.471,19.767a21.864,21.864,0,0,0-.776,3.929,22.771,22.771,0,0,0,4.41,15.939c2.2,3.02,4.915,7.29,5.769,11.064.481,2.127.373,4.092-.776,5.59a45.563,45.563,0,0,1-7.671,6.126c-15.21,10.093-53.657,26.724-120.823,1.25,0,0-28.727-28.339-50.466-16.3S481.07,810.159,481.07,810.159Z" transform="translate(481.045 437.926)" fill="#f8eee7"/>
    <path id="Path_8815" data-name="Path 8815" d="M744.574,713.73c.481,2.127.373,4.092-.776,5.59a45.569,45.569,0,0,1-7.671,6.126l130.761,9.759L831.049,689.98,768.673,663s-27.95,1.553-33.471,19.767a21.864,21.864,0,0,0-.776,3.929,22.772,22.772,0,0,0,4.41,15.939C741.01,705.7,743.72,709.957,744.574,713.73Z" transform="translate(424.42 437.926)" opacity="0.1"/>
    <path id="Path_8816" data-name="Path 8816" d="M767.5,464.31,660.36,466.639V594.892l101.708,68.952,24.457-22.516-5.047-74.534,5.047-69.488Z" transform="translate(529.239 509.318)" fill="#e8cfbe"/>
    <path id="Path_8817" data-name="Path 8817" d="M831.043,460.667,705.95,422.15a18.79,18.79,0,0,0-6.988-.776L400.126,443.191a141.087,141.087,0,0,0-71.165,25.1c-19.34,13.641-38.494,34.581-47.36,66.281a126.553,126.553,0,0,0,1.343,71.281l26.359,85.4S289.505,505.7,487.1,496.382Z" transform="translate(526.647 491.967)" fill="#f8eee7"/>
    <path id="Path_8818" data-name="Path 8818" d="M738.8,708.368c2.205,3.02,4.915,7.29,5.769,11.064,3.385-3.921,4.115-8.346-.776-11.879-6.126-4.457-8.168-12.19-8.626-19.053a21.864,21.864,0,0,0-.776,3.929,22.772,22.772,0,0,0,4.41,15.94Z" transform="translate(424.429 432.225)" fill="#fff" opacity="0.1"/>
    <path id="Path_8819" data-name="Path 8819" d="M336.07,695.05l14.752,50.078,33.385,32.609,41.926,8.54,65.217-11.646V542.876s-11.258-7.376-12.422-7.376-32.609,5.047-32.609,5.047l-71.2,51.064-2.95,2.12L340.34,641.09Z" transform="translate(513.467 466.436)" fill="#f8eee7"/>
    <path id="Path_8820" data-name="Path 8820" d="M420.549,497.81V739.27L414.26,740.4V497.81Z" transform="translate(584.268 501.827)" fill="#65617d"/>
    <path id="Path_8822" data-name="Path 8822" d="M420.549,497.81V739.27L414.26,740.4V497.81Z" transform="translate(584.268 501.827)" fill="#e8cfbe"/>
    <path id="Path_8823" data-name="Path 8823" d="M384.57,607.736c46.584-38.276,98.37-43.905,117.624-44.6V542.876s-11.258-7.376-12.422-7.376-32.609,5.047-32.609,5.047l-71.2,51.064Z" transform="translate(502.622 466.436)" opacity="0.1"/>
    <path id="Path_8824" data-name="Path 8824" d="M1018.812,576.071s-4.806,12.7-9.961,27.492c-4.565,13.144-9.41,27.95-11.39,36.949a26.954,26.954,0,0,1-5.481,10.458c-12.57,15.955-41.537,31.413-46.537,36.9-6.095,6.693-40.373,11.514-40.373,11.514V493.416l22.9-7.376h29.115l37.655,17.081,19.41,28.727Z" transform="translate(386.238 477.495)" fill="#f8eee7"/>
    <path id="Path_8846" data-name="Path 8846" d="M692.014,403.44l21.211,1.079-34.961,11.009-17.9-1.033Z" transform="translate(529.239 522.929)" opacity="0.1"/>
    <path id="Path_8847" data-name="Path 8847" d="M692,402.25l21.211,1.087-34.969,11.009-17.9-1.04Z" transform="translate(529.244 523.195)" fill="#fff"/>
    <path id="Path_8848" data-name="Path 8848" d="M811.61,440.049c.831-.365,1.731.3,2.624.45.512.093,1.04,0,1.553.078,1.04.124,2.081.776,3.106.443Z" transform="translate(407.135 487.803)" fill="#d3dae1"/>
    <path id="Path_8849" data-name="Path 8849" d="M810.21,440.889c.831-.365,1.731.3,2.624.45.512.093,1.04,0,1.553.078,1.04.124,2.081.776,3.067.435Z" transform="translate(407.448 487.615)" fill="#d3dae1"/>
    <path id="Path_8850" data-name="Path 8850" d="M807,442.569c.831-.365,1.731.3,2.632.45.5.093,1.033,0,1.553.078,1.04.124,2.081.776,3.106.435Z" transform="translate(408.166 487.239)" fill="#d3dae1"/>
    <path id="Path_8851" data-name="Path 8851" d="M876.006,432.82s-2.655,12.36,9.154,13.82l.73-1.366S876.721,436.663,876.006,432.82Z" transform="translate(392.793 489.395)" fill="#ff8e28"/>
    <path id="Path_8852" data-name="Path 8852" d="M890.7,443.387l-2.748.582-.272.054s-7.329-5.947-7.236-19.224a32.777,32.777,0,0,0,3.5,5.536C886.845,434.179,890.145,439.311,890.7,443.387Z" transform="translate(391.745 491.188)" fill="#ff8e28"/>
    <path id="Path_8853" data-name="Path 8853" d="M892.961,443.343a1.724,1.724,0,0,1-1.475.186c-7.05-1.646-4.658-24.62-4.658-24.62.388.186.815,3.106,2.438,6.879C892.1,432.419,895.228,441.674,892.961,443.343Z" transform="translate(390.404 492.505)" fill="#ff8e28"/>
    <path id="Path_8854" data-name="Path 8854" d="M911.521,432.82s.458,12.36-11.351,13.82l-.73-1.366S910.744,436.663,911.521,432.82Z" transform="translate(387.497 489.395)" fill="#ff8e28"/>
    <path id="Path_8855" data-name="Path 8855" d="M907.036,424.8a22.86,22.86,0,0,1-9.426,19.224l-.279-.054-2.741-.582c.543-4.076,3.882-9.208,6.747-13.051A29.868,29.868,0,0,1,907.036,424.8Z" transform="translate(388.581 491.188)" fill="#ff8e28"/>
    <path id="Path_8856" data-name="Path 8856" d="M896.808,442.14a4.457,4.457,0,0,1-1.553,1.2h0a3,3,0,0,1-.582.186c-1.731.412-2.329-.846-2.236-2.966.163-3.789,2.539-10.349,4.658-15.256a19.045,19.045,0,0,1,4.425-6.4S901.412,436.837,896.808,442.14Z" transform="translate(389.064 492.505)" fill="#ff8e28"/>
    <path id="Path_8857" data-name="Path 8857" d="M894.422,408.53s-7.873,27.95-1.095,32.135S896.161,411.007,894.422,408.53Z" transform="translate(389.479 494.826)" fill="#ff8e28"/>
    <path id="Path_8858" data-name="Path 8858" d="M876.006,432.82s-2.655,12.36,9.154,13.82l.73-1.366S876.721,436.663,876.006,432.82Z" transform="translate(392.793 489.395)" fill="#ff8e28" opacity="0.1"/>
    <path id="Path_8859" data-name="Path 8859" d="M890.7,443.387l-2.748.582-.272.054s-7.329-5.947-7.236-19.224a32.777,32.777,0,0,0,3.5,5.536C886.845,434.179,890.145,439.311,890.7,443.387Z" transform="translate(391.745 491.188)" fill="#ff8e28" opacity="0.1"/>
    <path id="Path_8860" data-name="Path 8860" d="M892.961,443.343a1.724,1.724,0,0,1-1.475.186c-7.05-1.646-4.658-24.62-4.658-24.62.388.186.815,3.106,2.438,6.879C892.1,432.419,895.228,441.674,892.961,443.343Z" transform="translate(390.404 492.505)" fill="#ff8e28" opacity="0.1"/>
    <path id="Path_8861" data-name="Path 8861" d="M911.521,432.82s.458,12.36-11.351,13.82l-.73-1.366S910.744,436.663,911.521,432.82Z" transform="translate(387.497 489.395)" fill="#ff8e28" opacity="0.1"/>
    <path id="Path_8862" data-name="Path 8862" d="M907.036,424.8a22.86,22.86,0,0,1-9.426,19.224l-.279-.054-2.741-.582c.543-4.076,3.882-9.208,6.747-13.051A29.868,29.868,0,0,1,907.036,424.8Z" transform="translate(388.581 491.188)" fill="#ff8e28" opacity="0.1"/>
    <path id="Path_8863" data-name="Path 8863" d="M896.808,442.14a4.457,4.457,0,0,1-1.553,1.2h0a3,3,0,0,1-.582.186c-1.731.412-2.329-.846-2.236-2.966.163-3.789,2.539-10.349,4.658-15.256a19.045,19.045,0,0,1,4.425-6.4S901.412,436.837,896.808,442.14Z" transform="translate(389.064 492.505)" fill="#ff8e28" opacity="0.1"/>
    <path id="Path_8864" data-name="Path 8864" d="M894.422,408.53s-7.873,27.95-1.095,32.135S896.161,411.007,894.422,408.53Z" transform="translate(389.479 494.826)" fill="#ff8e28" opacity="0.1"/>
    <path id="Path_8865" data-name="Path 8865" d="M876.061,432.82s-1.553,12.36,10.248,13.82l.73-1.366S876.775,436.663,876.061,432.82Z" transform="translate(392.739 489.395)" fill="#ff8e28"/>
    <path id="Path_8866" data-name="Path 8866" d="M891.791,443.387l-2.748.582-.272.054s-8.424-5.947-8.331-19.224c0,0,2.158,2.329,4.6,5.536C887.94,434.179,891.24,439.311,891.791,443.387Z" transform="translate(391.745 491.188)" fill="#ff8e28"/>
    <path id="Path_8867" data-name="Path 8867" d="M893.115,444.981l-2.748.582c-2.6-2.29-3.634-8.253-4.006-13.634C889.264,435.773,892.563,440.905,893.115,444.981Z" transform="translate(390.421 489.594)" fill="#ff8e28" opacity="0.1"/>
    <path id="Path_8868" data-name="Path 8868" d="M894.147,443.343a1.747,1.747,0,0,1-1.483.186c-7.05-1.646-5.761-24.62-5.761-24.62.388.186,1.918,3.106,3.533,6.879C893.285,432.419,896.406,441.674,894.147,443.343Z" transform="translate(390.32 492.505)" fill="#ff8e28"/>
    <path id="Path_8869" data-name="Path 8869" d="M911.838,432.82s1.553,12.36-10.248,13.82l-.73-1.366S911.062,436.663,911.838,432.82Z" transform="translate(387.179 489.395)" fill="#ff8e28"/>
    <path id="Path_8870" data-name="Path 8870" d="M907.351,424.8c.093,13.276-8.331,19.224-8.331,19.224l-.272-.054L896,443.387c.543-4.076,3.882-9.208,6.755-13.051C905.193,427.114,907.351,424.8,907.351,424.8Z" transform="translate(388.266 491.188)" fill="#ff8e28"/>
    <path id="Path_8871" data-name="Path 8871" d="M902.755,431.93c-.357,5.016-1.273,10.536-3.5,13.121a5.256,5.256,0,0,1-.5.512L896,444.981C896.543,440.905,899.882,435.773,902.755,431.93Z" transform="translate(388.266 489.594)" fill="#ff8e28" opacity="0.1"/>
    <path id="Path_8872" data-name="Path 8872" d="M898.219,442.14a4.363,4.363,0,0,1-1.553,1.2h0a3.107,3.107,0,0,1-.575.186c-1.739.411-2.329-.846-2.244-2.966.171-3.789,2.547-10.349,4.658-15.256,1.553-3.54,2.958-6.211,3.331-6.4C901.837,418.91,902.831,436.837,898.219,442.14Z" transform="translate(388.749 492.505)" fill="#ff8e28"/>
    <path id="Path_8873" data-name="Path 8873" d="M895.071,445.324a1.98,1.98,0,0,1-1.118-.357c-3.315-2.065-3.385-9.821-2.593-17.2C894.209,434.4,897.33,443.655,895.071,445.324Z" transform="translate(389.397 490.524)" fill="#ff8e28" opacity="0.1"/>
    <path id="Path_8874" data-name="Path 8874" d="M898.221,443.982c-.38.823-.893,1.258-1.553,1.2h0a2.329,2.329,0,0,1-.939-.357,5.085,5.085,0,0,1-1.879-2.422c.171-3.789,2.547-10.349,4.658-15.256C899.269,433.959,899.525,441.187,898.221,443.982Z" transform="translate(388.746 490.663)" fill="#ff8e28" opacity="0.1"/>
    <path id="Path_8875" data-name="Path 8875" d="M894.663,408.53s-6.77,27.95,0,32.135S896.4,411.007,894.663,408.53Z" transform="translate(389.237 494.826)" fill="#ff8e28"/>
    <path id="Path_8876" data-name="Path 8876" d="M789.514,416.96l-.474,2.469-1.724,9.061h-16.39l-1.724-9.061-.474-2.469Z" transform="translate(505.008 519.906)" fill="#534711"/>
    <path id="Path_8877" data-name="Path 8877" d="M789.514,416.96l-.474,2.469H769.2l-.474-2.469Z" transform="translate(505.008 519.906)" opacity="0.1"/>
    <rect id="Rectangle_1642" data-name="Rectangle 1642" width="28.191" height="4.666" transform="translate(1269.802 934.117)" fill="#534711"/>
    <path id="Path_8878" data-name="Path 8878" d="M959.418,499s55.714,34.938,43.525,91.149c-.994,4.589-1.856,9.193-2.422,13.843-2.228,18.214-15.6,70.474-95.45,94.542v5.435l33.874-9.449,23-12.679L979.5,666.089l21.46-26.172,9.961-21.351,3.649-28.121,2.073-32.112-5.132-27.5-12.1-17.911-14.752-11.475Z" transform="translate(386.238 474.597)" fill="#d9d6df"/>
    <path id="Path_8879" data-name="Path 8879" d="M313.092,642.288c-5.264,27.95-1.18,57.026,12.562,81.957,40.07,72.686,125.225,51.3,150.35,43.051,5.978-1.964,12.034-3.665,18.168-5.054L770.91,699.524c95.241-16.561,114.907-93.688,114.907-93.688,18.859-59.488,5.932-94.146-11.133-113.789a67.368,67.368,0,0,0-54.511-22.78l-32.826,1.739L495.553,502.839C359.148,504.3,322.711,591.123,313.092,642.288Zm27.026,3.5c9.2-43.991,45.287-107.8,161.351-111.732,5.326-.186,10.644-.652,15.932-1.359l260.963-34.86,30.217-1.553c22.7-1.141,44.612,9.425,57.2,28.346,12.019,18.082,18.517,46.584,3.649,90.893,0,0-18.191,67.329-106.266,81.794L507.548,752.055c-5.815,1.242-11.561,2.764-17.236,4.519-23.183,7.158-100.272,25.311-137.718-35.652C338.829,698.507,334.73,671.535,340.118,645.789Z" transform="translate(519.101 481.271)" fill="#e8cfbe"/>
  </g>
</svg>
